<svg width="83" height="83" viewBox="0 0 83 83" fill="none" xmlns="http://www.w3.org/2000/svg">
<path d="M10 2H38V38H2V10C2 5.58172 5.58172 2 10 2Z" stroke="#7a89f0" stroke-width="4"/>
<path d="M81 10L81 38L45 38L45 2L73 2C77.4183 2 81 5.58172 81 10Z" stroke="#7a89f0" stroke-width="4"/>
<path d="M73 81L45 81L45 45L81 45L81 73C81 77.4183 77.4183 81 73 81Z" stroke="#7a89f0" stroke-width="4"/>
<path d="M2 73L2 45L38 45L38 81L10 81C5.58172 81 2 77.4183 2 73Z" stroke="#7a89f0" stroke-width="4"/>
<path d="M10.0609 63.9605L10.0609 64.9605L11.0609 64.9605L17.9805 64.9605L17.9805 71.8801V72.8801H18.9805H20.9604H21.9604V71.8801L21.9604 64.9605L28.88 64.9605L29.88 64.9605L29.88 63.9605L29.88 61.9806L29.88 60.9806L28.88 60.9806L21.9604 60.9806L21.9604 54.061L21.9604 53.061H20.9604H18.9805H17.9805L17.9805 54.061L17.9805 60.9806L11.0609 60.9806L10.0609 60.9806L10.0609 61.9806L10.0609 63.9605Z" fill="#7a89f0" stroke="#7a89f0" stroke-width="2"/>
<path d="M56.6929 70.7071L57.4 71.4142L58.1071 70.7071L63 65.8142L67.8929 70.7071L68.6 71.4142L69.3071 70.7071L70.7071 69.3071L71.4142 68.6L70.7071 67.8929L65.8142 63L70.7071 58.1071L71.4142 57.4L70.7071 56.6929L69.3071 55.2929L68.6 54.5858L67.8929 55.2929L63 60.1858L58.1071 55.2929L57.4 54.5858L56.6929 55.2929L55.2929 56.6929L54.5858 57.4L55.2929 58.1071L60.1858 63L55.2929 67.8929L54.5858 68.6L55.2929 69.3071L56.6929 70.7071Z" fill="#7a89f0" stroke="#7a89f0" stroke-width="2"/>
<path d="M11.6721 13.2H29.1201V14.616H20.1201V20.832H24.5361V22.272H20.1201V28.56H29.1201V30H11.6721V13.2Z" fill="#7a89f0"/>
<path d="M53.0881 18.816V30H51.6721V13.2H58.6801L62.1841 20.208L64.9681 13.2H72.6481V30H64.9681V17.4L60.0721 30H57.9841L53.0881 18.816Z" fill="#7a89f0"/>
</svg>
